<svg version="1.1" id="Layer_1" xmlns="http://www.w3.org/2000/svg" xmlns:xlink="http://www.w3.org/1999/xlink" x="0px" y="0px"
	 width="100%" viewBox="0 0 516 417" enable-background="new 0 0 516 417" xml:space="preserve">
<path fill="#CEE480" opacity="1.000000" stroke="none" 
	d="
M516.000000,418.000000 
	C344.383850,418.000000 172.767685,418.000000 1.075759,418.000000 
	C1.075759,279.091431 1.075759,140.182816 1.075759,1.000000 
	C172.358139,1.000000 343.716431,1.000000 515.532898,1.466026 
	C515.994019,140.621368 515.997009,279.310669 516.000000,418.000000 
M489.976013,173.150497 
	C489.976013,173.150497 489.819458,173.150391 489.694305,172.666275 
	C489.463623,172.427979 489.232941,172.189667 488.352051,171.489532 
	C487.384888,171.326233 486.389160,170.926376 485.455322,171.039108 
	C480.433807,171.645325 478.602295,169.497879 478.953156,164.520081 
	C479.289246,159.751938 479.124420,154.938736 478.996857,150.150208 
	C478.844788,144.443268 478.498047,138.741486 477.894592,132.468430 
	C477.601562,132.140625 477.308533,131.812805 476.622559,130.866760 
	C472.828674,130.506821 469.034790,130.146896 465.103455,129.295349 
	C465.057953,129.130844 465.012421,128.966324 464.960083,128.453720 
	C464.960083,128.453720 464.966461,128.105621 465.445587,127.412758 
	C465.601654,120.822769 465.827515,114.232803 465.829895,107.642761 
	C465.830200,106.771423 464.691956,105.899673 463.533997,104.888489 
	C463.355530,104.828911 463.177032,104.769325 462.657837,104.045006 
	C460.790619,103.709900 458.903748,103.014557 457.060242,103.114998 
	C453.275787,103.321213 451.682037,101.992104 451.836578,98.049942 
	C451.900330,96.423561 450.674683,94.746620 449.809967,92.603668 
	C449.522644,92.151215 449.235321,91.698753 448.388031,90.664497 
	C447.441895,90.451897 446.461395,89.960739 445.555328,90.072563 
	C440.259979,90.726128 438.382965,88.374542 438.861847,83.246338 
	C438.986298,81.913559 437.844727,80.462547 436.908356,78.589409 
	C436.585785,78.347771 436.263214,78.106140 435.656525,77.157898 
	C430.309570,76.784576 424.963043,76.117043 419.615540,76.109001 
	C412.165833,76.097809 411.660614,75.791428 412.053955,68.156631 
	C412.104858,67.169289 412.745789,65.838638 412.316284,65.281372 
	C411.525726,64.255653 410.142639,63.686562 408.068420,62.931244 
	C365.721741,62.914207 323.375092,62.897175 280.461700,62.542213 
	C277.295013,62.330402 275.876343,63.798527 276.014496,66.975021 
	C276.108368,69.133553 276.334930,71.382561 275.842834,73.432854 
	C275.564331,74.593132 273.990967,76.229492 272.936523,76.278900 
	C268.634216,76.480469 264.305939,76.024338 259.989532,76.063141 
	C256.911621,76.090813 255.873016,74.705193 255.965744,71.807732 
	C256.082794,68.149902 256.065796,64.483032 255.965302,60.823944 
	C255.717880,51.813759 258.277496,49.119900 245.226257,49.889397 
	C238.298950,50.297832 238.279007,49.959423 237.963974,42.743084 
	C237.737350,37.551464 236.249115,36.065250 230.871918,36.014435 
	C223.715530,35.946808 216.555695,36.118866 209.401398,35.979340 
	C194.475494,35.688255 196.255081,36.858318 195.263992,48.968307 
	C194.854919,48.974976 194.445847,48.981647 193.488174,48.566044 
	C191.975723,48.711037 190.463287,48.856026 188.169174,49.089428 
	C184.095322,51.441463 186.434250,55.334530 186.084869,58.493519 
	C185.684692,62.111706 184.435928,64.103783 180.547287,63.851887 
	C175.588821,63.530682 170.627029,63.209320 165.661499,63.061054 
	C158.795731,62.856045 158.087097,62.332878 158.041031,55.302330 
	C158.013779,51.145496 156.931854,48.489529 152.075760,48.963779 
	C147.713547,49.389793 145.429611,47.512100 145.954041,42.879944 
	C146.526245,37.825829 143.866272,35.987087 139.188385,36.012981 
	C129.876968,36.064522 120.563873,35.961250 111.254723,36.116581 
	C109.830994,36.140339 108.424622,37.203712 106.582268,38.518028 
	C106.382500,42.248413 106.182739,45.978794 105.994576,49.492500 
	C101.531349,50.079147 97.674881,50.586040 93.171608,51.300346 
	C92.809189,52.164421 92.149261,53.022816 92.132652,53.893490 
	C92.024910,59.536800 91.880600,65.189827 92.105057,70.825462 
	C92.257805,74.660965 91.031158,76.328964 87.000221,76.063271 
	C84.791054,75.917664 82.524918,76.636398 79.717293,77.585678 
	C79.527641,78.881645 79.203087,80.174217 79.170311,81.474144 
	C78.963959,89.659645 78.984901,89.640503 71.018188,89.836090 
	C69.755272,89.867096 68.498962,90.166679 66.802002,90.403046 
	C66.802002,103.464645 66.802002,116.233955 66.189346,129.049637 
	C65.786789,129.146469 65.384232,129.243301 64.065132,129.160553 
	C51.199448,129.150192 38.333759,129.139847 24.812065,129.648560 
	C24.536333,131.587418 24.100361,133.519089 24.012793,135.466400 
	C23.647104,143.598511 23.386084,151.735336 23.063654,160.607483 
	C23.134018,161.090546 23.204382,161.573624 23.184544,162.981979 
	C23.227930,169.967072 23.271317,176.952148 23.259665,184.698074 
	C25.709316,185.407928 28.134890,186.610397 30.613319,186.731552 
	C37.022926,187.044830 36.949230,186.856598 37.125576,193.396957 
	C37.194530,195.954483 37.729565,198.499451 38.709080,201.534988 
	C42.781647,201.696793 46.853588,201.877106 50.926952,202.015472 
	C55.533951,202.171951 60.851307,200.614914 62.838951,207.680389 
	C62.819405,208.105682 62.799858,208.530991 62.192520,209.198517 
	C60.006863,212.928696 62.949242,213.436783 65.353340,213.874649 
	C67.618393,214.287216 70.181091,213.670029 72.228180,214.479126 
	C73.798981,215.099960 75.643013,217.117126 75.858604,218.716461 
	C76.773598,225.503952 76.583000,225.385330 83.600304,226.093292 
	C85.120003,226.246613 87.601410,227.716522 87.752762,228.835297 
	C88.788872,236.494537 89.858871,244.217468 89.921654,251.927979 
	C90.158379,281.003510 89.995163,310.082153 90.058647,339.159485 
	C90.062798,341.060486 90.712906,342.960083 91.790787,345.248932 
	C93.753571,345.466339 95.763474,346.064240 97.670097,345.828125 
	C102.891464,345.181519 104.194740,347.417999 104.005867,352.357605 
	C103.643501,361.834534 103.956985,371.335785 103.884819,380.826172 
	C103.863655,383.609344 104.591248,385.194580 107.776154,385.187469 
	C131.919647,385.133575 156.063553,385.204346 180.206406,385.069305 
	C181.412567,385.062592 183.384842,383.726074 183.686508,382.642792 
	C185.716843,375.351898 183.816315,372.935486 176.518387,372.937408 
	C175.852371,372.937561 175.179916,372.875549 174.521408,372.945526 
	C171.099060,373.309082 169.807480,371.882568 169.854736,368.376648 
	C170.009537,356.889679 170.064896,345.396149 169.827835,333.911957 
	C169.743210,329.812103 171.336212,328.810638 175.104477,328.872314 
	C186.757004,329.063110 198.414124,328.973358 210.050339,329.930450 
	C210.068695,341.570557 210.154373,353.211121 210.078705,364.850616 
	C210.037125,371.246582 208.736755,373.005219 203.446869,372.892273 
	C198.407715,372.784668 198.925583,375.905518 198.838654,379.146210 
	C198.744461,382.657898 198.998398,385.199158 203.724808,385.165924 
	C226.671463,385.004578 249.620132,385.058472 272.567596,385.153412 
	C276.087555,385.167969 277.257477,383.723907 277.137970,380.371521 
	C276.972198,375.721497 277.096527,371.060913 277.107544,366.404846 
	C277.126251,358.510742 277.373962,358.062958 285.010956,358.017548 
	C289.065338,357.993408 290.169342,356.173798 290.108643,352.514038 
	C290.001160,346.032837 290.155548,339.547272 291.098785,333.014038 
	C295.751984,332.979218 300.405182,332.917084 305.058380,332.915283 
	C314.754608,332.911591 314.891846,332.922882 315.016785,342.516266 
	C315.061920,345.982361 316.249847,347.197357 319.684357,347.167969 
	C323.097748,347.138763 326.516602,347.742767 329.911743,348.991821 
	C329.905731,356.302094 329.899750,363.612335 329.226074,371.382751 
	C325.761841,371.560089 322.281403,371.595490 318.841888,371.988861 
	C317.575012,372.133789 315.708130,372.825348 315.301361,373.775513 
	C312.242340,380.920654 315.631714,385.994904 323.334717,385.841095 
	C349.006073,385.328552 374.673187,384.555267 400.346313,384.196960 
	C419.639313,383.927673 438.939178,384.171204 458.235626,384.096985 
	C460.123474,384.089722 462.008850,383.453369 463.977966,383.008392 
	C463.977966,383.008392 464.020142,382.885223 464.470093,382.254303 
	C464.657593,379.208649 464.845093,376.162994 465.186279,373.038666 
	C465.186279,373.038666 465.243195,372.875671 466.099121,372.991119 
	C470.010376,372.648010 473.921661,372.304901 478.404968,371.354492 
	C478.608521,369.570221 478.981781,367.786591 478.988495,366.001587 
	C479.038269,352.759216 479.013397,339.516571 479.015717,326.274017 
	C479.017059,318.737793 479.022125,318.755615 486.662170,317.958191 
	C487.445007,317.876465 488.188782,317.420319 489.414337,316.928253 
	C489.573608,316.869965 489.732910,316.811676 490.386719,316.392120 
	C490.610870,315.603729 490.835052,314.815338 491.269165,313.794586 
	C491.403961,313.476562 491.332153,313.203522 491.049591,312.041260 
	C491.068695,267.040955 491.087799,222.040634 491.309265,176.800430 
	C491.441711,176.485214 491.381073,176.204163 491.110046,175.283463 
	C491.080597,174.835098 491.051147,174.386749 490.744476,173.553635 
	C490.529785,173.313995 490.276062,173.127487 489.976013,173.150497 
z"/>
<path fill="#E4F4AB" opacity="1.000000" stroke="none" 
	d="
M516.500000,418.000000 
	C515.997009,279.310669 515.994019,140.621368 515.995544,1.466022 
	C516.333374,2.333327 516.956848,3.666383 516.958130,5.000033 
	C517.007507,56.666660 517.000000,108.333336 517.000000,160.000000 
	C517.000000,246.000000 517.000000,332.000000 516.500000,418.000000 
z"/>
<path fill="#3956A1" opacity="1.000000" stroke="none" 
	d="
M66.802002,129.003265 
	C66.802002,116.233955 66.802002,103.464645 66.802002,90.403046 
	C68.498962,90.166679 69.755272,89.867096 71.018188,89.836090 
	C78.984901,89.640503 78.963959,89.659645 79.170311,81.474144 
	C79.203087,80.174217 79.527641,78.881645 80.427673,77.355103 
	C85.435265,77.050011 89.732468,76.975487 94.280846,76.614990 
	C95.001083,70.252495 96.318314,64.087593 95.696945,58.124718 
	C95.094398,52.342419 97.297256,51.471561 101.913612,51.990330 
	C106.323540,52.485897 108.561180,50.751648 108.021652,46.079128 
	C107.889458,44.934273 107.598480,43.504467 108.118279,42.659561 
	C108.874794,41.429882 110.262810,39.803364 111.446350,39.748688 
	C119.369507,39.382675 127.311501,39.245934 135.243866,39.337978 
	C138.891388,39.380302 142.801926,39.641888 142.148514,45.248825 
	C142.021042,46.342682 143.283173,47.598476 144.099106,49.119808 
	C146.692398,49.778355 149.110748,50.461498 151.485062,50.332745 
	C155.421783,50.119251 156.912643,51.677177 156.659973,55.527534 
	C156.461273,58.555702 156.620087,61.607330 156.620087,64.837967 
	C167.366058,64.837967 177.116165,64.837967 187.155029,64.646431 
	C187.736160,62.758842 188.426743,61.020130 188.250443,59.374275 
	C187.567627,52.999916 188.018661,52.216599 194.521042,52.003757 
	C198.479813,51.874180 200.636642,50.240204 199.911530,46.223751 
	C198.872269,40.467293 202.491867,39.339775 206.749374,39.199081 
	C213.490280,38.976318 220.246368,39.013695 226.991074,39.164051 
	C233.277222,39.304180 234.288589,40.176888 233.928467,46.447044 
	C233.639465,51.479240 236.098923,52.774178 240.379501,52.967827 
	C244.289001,53.144688 248.184357,53.633785 252.062439,54.451447 
	C252.026291,61.507763 252.130005,68.100960 251.957596,74.686935 
	C251.853592,78.660423 253.853775,79.966911 257.427490,79.999245 
	C263.723999,80.056198 270.032013,80.436234 276.306488,80.117004 
	C277.707977,80.045708 280.009430,77.726295 280.127625,76.295753 
	C280.422302,72.729324 279.699066,69.078804 279.821838,65.385414 
	C281.252319,65.232086 282.245422,65.088127 283.238495,65.088379 
	C324.461212,65.099007 365.683960,65.122566 406.954132,65.522720 
	C407.684540,68.756691 408.741211,71.584305 408.958984,74.475113 
	C409.252808,78.375771 410.769867,80.176727 414.822754,80.048126 
	C420.470947,79.868896 426.129395,80.013901 431.783447,80.019287 
	C435.007477,80.022354 436.169189,81.439880 435.639282,84.755653 
	C434.411652,92.436897 435.312378,93.762039 442.887329,93.836113 
	C447.268250,93.878952 448.198761,95.660789 448.135040,99.532410 
	C448.105713,101.315331 449.445648,103.120789 450.374481,104.949188 
	C450.584229,104.982353 450.983673,105.126053 451.193237,105.411339 
	C452.781097,106.007401 454.192230,106.684677 455.531891,106.564568 
	C460.905670,106.082771 461.937439,106.885254 462.006866,112.453102 
	C462.069153,117.448685 461.859924,122.453835 462.115692,127.437050 
	C462.192474,128.933258 463.427032,130.370041 464.368378,131.902100 
	C464.605560,131.970139 465.071777,132.128952 465.407227,132.347748 
	C467.051331,132.714630 468.396912,133.134857 469.662109,132.963013 
	C474.738770,132.273407 476.303223,134.324661 476.085449,139.386322 
	C475.693268,148.502151 475.909302,157.648163 476.035614,166.779282 
	C476.064453,168.866089 476.761566,170.943634 477.466309,173.259201 
	C478.423187,173.648285 479.058594,173.903030 479.707458,173.943848 
	C488.060760,174.469177 488.065826,174.461441 488.065826,182.673553 
	C488.065735,222.828033 488.067902,262.982513 488.052155,303.136993 
	C488.050842,306.463837 489.041229,310.497314 487.519623,312.907593 
	C486.150116,315.076965 481.960663,315.466095 478.675476,316.745392 
	C478.102570,316.890472 477.869232,316.930634 477.350830,316.907166 
	C476.704193,318.302521 476.036346,319.759827 476.028503,321.220673 
	C475.952820,335.330170 475.994019,349.440247 475.989166,363.550171 
	C475.986481,371.367218 475.966827,371.351837 468.001556,372.004852 
	C467.064606,372.081665 466.161804,372.575256 465.243195,372.875671 
	C465.243195,372.875671 465.186279,373.038666 464.775146,373.308990 
	C464.249420,376.681274 464.134796,379.783264 464.020142,382.885223 
	C464.020142,382.885223 463.977966,383.008392 463.480530,383.036774 
	C438.743896,383.073639 414.504425,383.023285 390.265900,383.152252 
	C386.507446,383.172272 385.005768,382.161346 384.926758,378.124634 
	C384.841034,373.742920 386.619934,372.577393 390.525452,372.976746 
	C392.330566,373.161346 394.173889,372.972656 396.329041,372.973358 
	C397.390869,372.628906 398.123474,372.264252 398.904053,371.911560 
	C398.952026,371.923462 399.024170,371.991058 399.260559,371.653137 
	C399.665039,361.945496 399.897400,352.576111 399.951172,343.205719 
	C399.963013,341.140961 399.341553,339.072601 398.960052,336.660278 
	C398.811493,335.859253 398.714630,335.403900 398.716553,334.953308 
	C398.815369,334.958069 399.011414,334.984192 399.184235,334.818726 
	C399.240936,334.107666 399.124817,333.562073 398.908325,333.043823 
	C398.807922,333.071228 398.602997,333.107574 398.601990,332.790100 
	C396.062286,332.304321 393.523529,332.135986 390.587952,331.933960 
	C389.130127,331.920776 388.069153,331.941193 386.635498,331.929749 
	C385.516052,331.909760 384.769257,331.921692 383.849640,331.680542 
	C383.328552,330.923157 382.980347,330.418915 382.720337,329.461639 
	C382.747620,312.696716 382.686707,296.384766 382.925354,279.787781 
	C386.828735,279.024780 390.432617,278.546814 394.257996,277.953278 
	C394.760071,277.635925 394.954590,277.371002 395.097839,276.640564 
	C395.117310,275.162201 395.101990,274.086212 395.267517,272.715393 
	C395.444031,271.283417 395.439667,270.146271 395.560486,268.620483 
	C395.780365,267.151337 395.875092,266.070862 395.979492,265.002808 
	C395.989136,265.015228 396.009918,264.991608 396.476013,265.001831 
	C400.107086,265.013611 403.289246,264.807983 406.432739,265.068542 
	C410.464600,265.402740 412.264496,264.073700 411.936768,259.784424 
	C411.633118,255.810013 411.862915,251.793594 411.884827,247.795822 
	C411.936920,238.293198 410.958862,239.163284 420.348907,239.022842 
	C422.264008,238.994202 424.169861,238.345688 426.398499,237.873352 
	C427.047821,237.416656 427.660370,237.075439 427.667786,236.721527 
	C427.812317,229.831039 427.967377,222.938126 427.886169,216.048462 
	C427.874115,215.027893 426.677673,214.021271 425.699585,212.763702 
	C421.942871,212.194977 418.461884,212.139572 415.104279,211.467712 
	C412.009857,210.848572 411.145691,212.237854 411.103546,214.800323 
	C411.032928,219.096222 411.061798,223.393875 411.059906,227.690781 
	C411.055481,237.665756 411.058197,237.665756 400.689331,238.002274 
	C399.900146,237.971497 399.448395,237.974380 398.583649,237.959000 
	C397.138672,239.039673 395.385315,240.040359 395.219543,241.257324 
	C394.831757,244.103867 395.205658,247.054153 395.076965,250.202881 
	C394.576752,250.718399 394.270752,250.993484 393.510620,251.201080 
	C388.952637,251.765335 384.848724,252.397064 380.462158,253.138260 
	C380.355103,254.493179 380.530731,255.738617 380.736755,257.322632 
	C380.749756,258.113678 380.732361,258.566162 380.406616,259.169312 
	C379.333221,263.274017 376.850555,265.418121 372.618530,266.146149 
	C371.815674,266.336304 371.362061,266.467285 370.914917,266.467712 
	C370.921387,266.337158 370.977051,266.081757 370.652740,265.821594 
	C368.361298,265.374298 366.394531,265.029144 364.426971,265.024628 
	C346.284912,264.982758 328.142700,265.007507 310.000549,264.995758 
	C303.154510,264.991333 303.200928,264.835114 302.902405,257.990814 
	C302.800659,255.657379 301.578979,253.372803 300.414795,251.077942 
	C296.019623,251.005112 292.078613,250.920212 288.134338,250.449463 
	C288.075562,249.037247 288.020020,248.010880 288.017822,246.519836 
	C288.081848,236.026978 288.182861,225.997192 288.008453,215.972214 
	C287.981415,214.416977 286.694275,212.883652 285.627747,211.273544 
	C283.817108,211.298019 282.368500,211.389175 280.652863,211.514893 
	C280.216827,211.610107 280.047821,211.670746 279.725983,211.702515 
	C279.573120,211.673645 279.286957,211.795746 279.243805,211.781921 
	C279.200653,211.768112 279.181305,211.679596 279.161926,211.389236 
	C279.034088,210.726395 278.925659,210.353912 278.854187,209.740387 
	C278.891113,209.499359 278.834290,209.014984 278.888733,208.548248 
	C278.904755,198.053528 278.866333,188.025543 278.836487,177.745926 
	C278.210297,177.297150 277.575531,177.100021 276.674927,176.585175 
	C276.235901,167.325546 275.977661,158.384247 275.910370,149.441528 
	C275.821320,137.599655 275.885529,137.599167 263.840668,137.285217 
	C263.341370,135.103302 262.956390,133.310623 262.933807,131.513367 
	C262.856445,125.359619 262.993591,119.202034 262.836456,113.051346 
	C262.803711,111.769783 262.210754,109.831841 261.281158,109.354309 
	C255.837311,106.557838 251.012222,109.649147 251.002060,115.698380 
	C250.950317,146.470337 250.899567,177.242279 250.451416,208.094849 
	C242.808365,208.450562 235.557678,209.016144 228.317978,208.899200 
	C223.443466,208.820480 221.883209,210.821884 221.930283,215.373901 
	C221.965744,218.802139 221.335556,222.237259 220.643799,225.717117 
	C219.807205,225.729813 219.328445,225.694717 218.645538,225.524048 
	C217.678406,225.477646 216.915421,225.566818 215.724579,225.716019 
	C211.328033,225.351410 210.001450,227.238129 210.190414,231.056320 
	C210.269638,232.657120 209.698486,235.410507 208.749451,235.748520 
	C204.567108,237.238037 200.152664,238.874557 195.797913,238.944794 
	C175.495163,239.272263 155.184174,239.066162 134.876480,239.139801 
	C132.059875,239.150009 131.078796,238.049286 131.083847,235.299225 
	C131.108215,222.030289 130.313904,223.941635 140.121521,224.249466 
	C145.315720,224.412476 145.025375,221.620834 145.183380,218.060577 
	C145.362961,214.014481 144.579727,212.002197 139.810562,212.152191 
	C129.001495,212.492142 118.173378,212.176437 107.354904,212.297043 
	C104.196976,212.332230 102.544182,211.341766 103.023949,208.024948 
	C103.622650,203.885803 101.600830,202.976990 97.846565,203.047256 
	C87.530060,203.240341 77.207428,203.105728 66.875717,202.771606 
	C66.812828,202.008240 66.761429,201.574036 66.786591,200.798691 
	C66.900963,199.993607 66.938759,199.529694 67.445557,199.029984 
	C77.210945,198.975464 86.507317,198.948563 95.803703,198.940628 
	C102.987022,198.934479 102.999199,198.945038 103.002640,191.526566 
	C103.010269,175.091415 103.008339,158.656265 103.002724,142.221115 
	C102.998970,131.253830 102.993118,131.253830 91.990280,130.573181 
	C91.934288,127.798744 91.805893,125.483955 91.910339,123.179718 
	C92.038391,120.354675 91.092209,119.068665 88.000404,118.905548 
	C77.266609,118.339287 77.273819,118.231171 77.090858,129.069092 
	C77.079735,129.728195 77.015411,130.386429 76.532440,131.071014 
	C73.160355,131.098297 70.231651,131.099625 67.206131,130.754150 
	C67.006866,129.939331 66.904434,129.471298 66.802002,129.003265 
M132.948975,131.781403 
	C134.432419,131.832764 135.915649,131.920197 137.399353,131.929443 
	C145.206604,131.978119 145.032501,131.968979 145.136261,124.062820 
	C145.186234,120.255501 144.071320,118.476982 140.071167,118.937798 
	C138.113998,119.163269 136.077194,118.789909 134.145432,119.107391 
	C133.064117,119.285103 131.259232,120.327377 131.263870,120.969391 
	C131.289200,124.478661 131.774750,127.984596 132.948975,131.781403 
z"/>
<path fill="#99A5CA" opacity="1.000000" stroke="none" 
	d="
M218.849701,225.659622 
	C219.328445,225.694717 219.807205,225.729813 221.034225,225.749969 
	C222.525970,224.468079 223.679489,223.273193 223.917709,221.917480 
	C224.284012,219.832764 224.209366,217.617889 223.985992,215.493546 
	C223.564850,211.488403 224.950256,209.881775 229.200089,210.044937 
	C236.457718,210.323578 243.735962,210.065399 251.341064,210.264359 
	C252.815445,210.658401 253.951340,210.935959 255.093567,210.964951 
	C263.993927,211.190994 263.984985,211.176178 263.999390,202.427261 
	C264.034943,180.842285 264.079895,159.257309 264.121063,137.672333 
	C275.885529,137.599167 275.821320,137.599655 275.910370,149.441528 
	C275.977661,158.384247 276.235901,167.325546 276.859497,176.798965 
	C277.815857,177.552841 278.321899,177.775208 278.827911,177.997574 
	C278.866333,188.025543 278.904755,198.053528 278.706757,208.577026 
	C278.585999,209.375504 278.701630,209.678467 278.817230,209.981430 
	C278.925659,210.353912 279.034088,210.726395 279.069153,211.477631 
	C278.995728,211.856369 278.989990,212.155487 278.989990,212.155487 
	C278.989990,212.155487 279.286957,211.795746 279.286957,211.795746 
	C279.286957,211.795746 279.573120,211.673645 279.861511,211.845581 
	C280.406586,211.838455 280.663239,211.659363 280.919922,211.480301 
	C282.368500,211.389175 283.817108,211.298019 285.640289,211.673584 
	C287.025116,222.156540 288.439728,232.145142 285.434906,242.146072 
	C285.060272,243.392960 287.063232,245.354233 287.964478,246.984497 
	C288.020020,248.010880 288.075562,249.037247 288.090271,250.931686 
	C288.046967,277.012268 287.998566,302.225067 288.135132,327.436829 
	C288.145325,329.316071 289.480896,331.188141 290.200348,333.063538 
	C290.155548,339.547272 290.001160,346.032837 290.108643,352.514038 
	C290.169342,356.173798 289.065338,357.993408 285.010956,358.017548 
	C277.373962,358.062958 277.126251,358.510742 277.107544,366.404846 
	C277.096527,371.060913 276.972198,375.721497 277.137970,380.371521 
	C277.257477,383.723907 276.087555,385.167969 272.567596,385.153412 
	C249.620132,385.058472 226.671463,385.004578 203.724808,385.165924 
	C198.998398,385.199158 198.744461,382.657898 198.838654,379.146210 
	C198.925583,375.905518 198.407715,372.784668 203.446869,372.892273 
	C208.736755,373.005219 210.037125,371.246582 210.078705,364.850616 
	C210.154373,353.211121 210.068695,341.570557 210.447266,329.426819 
	C215.167633,326.396484 211.994781,322.232269 213.482269,318.975555 
	C221.089600,318.960846 228.232117,318.847504 235.369217,318.995636 
	C238.727493,319.065369 240.165421,317.975708 240.061249,314.423981 
	C239.856873,307.455475 239.845840,300.472321 240.054703,293.504242 
	C240.163834,289.863037 238.579819,288.970154 235.287582,289.036713 
	C227.861252,289.186859 220.429581,289.073029 212.997803,288.593750 
	C212.996521,282.801605 212.732117,277.464905 213.077988,272.168091 
	C213.384384,267.475922 211.942673,265.792145 206.996170,265.871307 
	C189.546539,266.150543 172.089584,266.023163 154.635681,265.967529 
	C143.566864,265.932251 144.984726,267.028748 145.086670,256.436462 
	C145.125793,252.372925 143.914917,250.868011 139.713623,250.967194 
	C129.413223,251.210403 119.102898,251.007080 108.796982,251.061005 
	C105.996857,251.075653 104.093048,250.716324 103.931580,247.122971 
	C103.565239,238.970978 103.399063,238.979156 94.975494,238.957352 
	C93.645721,238.953903 92.315971,238.940735 90.878448,238.537659 
	C90.494911,236.023361 90.031425,233.908249 89.977104,231.782684 
	C89.782280,224.158981 89.803886,224.331161 82.035210,222.955292 
	C80.517731,222.686539 78.413551,220.646164 78.166023,219.158951 
	C77.007294,212.196960 77.203583,212.233368 70.177177,212.039886 
	C67.388527,211.963104 63.923691,213.131256 62.780308,208.956284 
	C62.799858,208.530991 62.819405,208.105682 62.934746,207.042297 
	C64.316101,205.303085 65.601662,204.201935 66.887215,203.100800 
	C77.207428,203.105728 87.530060,203.240341 97.846565,203.047256 
	C101.600830,202.976990 103.622650,203.885803 103.023949,208.024948 
	C102.544182,211.341766 104.196976,212.332230 107.354904,212.297043 
	C118.173378,212.176437 129.001495,212.492142 139.810562,212.152191 
	C144.579727,212.002197 145.362961,214.014481 145.183380,218.060577 
	C145.025375,221.620834 145.315720,224.412476 140.121521,224.249466 
	C130.313904,223.941635 131.108215,222.030289 131.083847,235.299225 
	C131.078796,238.049286 132.059875,239.150009 134.876480,239.139801 
	C155.184174,239.066162 175.495163,239.272263 195.797913,238.944794 
	C200.152664,238.874557 204.567108,237.238037 208.749451,235.748520 
	C209.698486,235.410507 210.269638,232.657120 210.190414,231.056320 
	C210.001450,227.238129 211.328033,225.351410 216.058411,225.779877 
	C217.496643,225.742355 218.173172,225.700989 218.849701,225.659622 
z"/>
<path fill="#878E98" opacity="1.000000" stroke="none" 
	d="
M213.015259,318.984070 
	C211.994781,322.232269 215.167633,326.396484 210.456818,328.957855 
	C198.414124,328.973358 186.757004,329.063110 175.104477,328.872314 
	C171.336212,328.810638 169.743210,329.812103 169.827835,333.911957 
	C170.064896,345.396149 170.009537,356.889679 169.854736,368.376648 
	C169.807480,371.882568 171.099060,373.309082 174.521408,372.945526 
	C175.179916,372.875549 175.852371,372.937561 176.518387,372.937408 
	C183.816315,372.935486 185.716843,375.351898 183.686508,382.642792 
	C183.384842,383.726074 181.412567,385.062592 180.206406,385.069305 
	C156.063553,385.204346 131.919647,385.133575 107.776154,385.187469 
	C104.591248,385.194580 103.863655,383.609344 103.884819,380.826172 
	C103.956985,371.335785 103.643501,361.834534 104.005867,352.357605 
	C104.194740,347.417999 102.891464,345.181519 97.670097,345.828125 
	C95.763474,346.064240 93.753571,345.466339 91.449142,344.601868 
	C91.067070,308.947205 91.026642,273.939636 90.986214,238.932053 
	C92.315971,238.940735 93.645721,238.953903 94.975494,238.957352 
	C103.399063,238.979156 103.565239,238.970978 103.931580,247.122971 
	C104.093048,250.716324 105.996857,251.075653 108.796982,251.061005 
	C119.102898,251.007080 129.413223,251.210403 139.713623,250.967194 
	C143.914917,250.868011 145.125793,252.372925 145.086670,256.436462 
	C144.984726,267.028748 143.566864,265.932251 154.635681,265.967529 
	C172.089584,266.023163 189.546539,266.150543 206.996170,265.871307 
	C211.942673,265.792145 213.384384,267.475922 213.077988,272.168091 
	C212.732117,277.464905 212.996521,282.801605 212.999878,289.055176 
	C213.007919,299.654327 213.011597,309.319183 213.015259,318.984070 
z"/>
<path fill="#878D99" opacity="1.000000" stroke="none" 
	d="
M290.649567,333.038788 
	C289.480896,331.188141 288.145325,329.316071 288.135132,327.436829 
	C287.998566,302.225067 288.046967,277.012268 288.093506,251.317535 
	C292.078613,250.920212 296.019623,251.005112 300.454987,251.536224 
	C301.305603,256.777740 301.661835,261.573029 302.070496,266.730621 
	C303.475464,267.727234 304.824677,268.905792 306.180969,268.914001 
	C325.747589,269.032806 345.315582,269.043365 364.881714,268.889191 
	C366.263428,268.878296 367.633392,267.376129 369.334015,266.475403 
	C370.098480,266.282837 370.537781,266.182281 370.977051,266.081757 
	C370.977051,266.081757 370.921387,266.337158 371.010101,266.796936 
	C375.088440,270.196503 379.115967,269.722534 381.394897,265.919464 
	C382.166260,263.923523 382.890533,262.103973 382.945801,260.264374 
	C383.146942,253.572800 383.285126,253.427063 389.787323,252.931885 
	C391.213715,252.823257 392.574005,251.845886 393.964722,251.268585 
	C394.270752,250.993484 394.576752,250.718399 395.398132,250.047455 
	C396.941254,245.760132 397.968933,241.868698 398.996643,237.977264 
	C399.448395,237.974380 399.900146,237.971497 400.943787,238.257294 
	C402.420807,238.973404 403.304749,239.765579 404.191193,239.768402 
	C409.490814,239.785233 410.355194,242.916351 410.047882,247.332733 
	C409.796234,250.949677 410.150848,254.607971 409.918060,258.227448 
	C409.815063,259.829071 408.924866,261.380066 408.140533,263.696960 
	C406.309967,261.449188 405.383972,260.312103 404.213531,258.874908 
	C403.117676,263.492279 403.112762,263.455811 398.746429,264.044769 
	C397.808777,264.171265 396.920776,264.666321 396.009918,264.991608 
	C396.009918,264.991608 395.989136,265.015228 395.628906,265.033508 
	C394.575867,265.736603 393.883087,266.421448 393.190308,267.106323 
	C393.938629,267.740601 394.686981,268.374878 395.435303,269.009155 
	C395.439667,270.146271 395.444031,271.283417 395.010986,272.920410 
	C393.699097,274.064728 392.824646,274.709198 391.950195,275.353638 
	C390.926483,273.142639 389.902771,270.931641 388.739807,268.419830 
	C388.178375,269.021362 387.399689,269.475555 387.417694,269.895508 
	C387.588654,273.875244 385.658142,275.864716 381.991394,277.312195 
	C380.044525,278.080719 376.699615,280.318726 380.995850,283.470459 
	C380.997650,297.506836 380.939087,311.075287 381.071075,324.641876 
	C381.088226,326.404358 382.087677,328.157288 382.632141,329.914642 
	C382.980347,330.418915 383.328552,330.923157 383.921387,331.989227 
	C385.113342,332.354553 386.060760,332.158081 387.008148,331.961639 
	C388.069153,331.941193 389.130127,331.920776 390.694244,332.263000 
	C393.665894,332.786346 396.134460,332.946960 398.602997,333.107574 
	C398.602997,333.107574 398.807922,333.071228 398.880280,333.371277 
	C398.972229,334.108978 398.991821,334.546570 399.011414,334.984192 
	C399.011414,334.984192 398.815369,334.958069 398.407318,335.153809 
	C397.665833,337.084412 397.060516,338.816589 397.043579,340.554535 
	C396.941467,351.030060 396.974152,361.506897 396.776978,372.119659 
	C396.356781,372.456085 396.159302,372.688446 395.999878,372.953186 
	C394.173889,372.972656 392.330566,373.161346 390.525452,372.976746 
	C386.619934,372.577393 384.841034,373.742920 384.926758,378.124634 
	C385.005768,382.161346 386.507446,383.172272 390.265900,383.152252 
	C414.504425,383.023285 438.743896,383.073639 463.439209,383.087097 
	C462.008850,383.453369 460.123474,384.089722 458.235626,384.096985 
	C438.939178,384.171204 419.639313,383.927673 400.346313,384.196960 
	C374.673187,384.555267 349.006073,385.328552 323.334717,385.841095 
	C315.631714,385.994904 312.242340,380.920654 315.301361,373.775513 
	C315.708130,372.825348 317.575012,372.133789 318.841888,371.988861 
	C322.281403,371.595490 325.761841,371.560089 329.895599,371.077911 
	C330.863068,370.413452 331.418121,370.055756 331.420868,369.693909 
	C331.471649,363.006775 331.490784,356.318665 331.389465,349.632690 
	C331.381439,349.104279 330.440430,348.589966 329.933044,348.069092 
	C326.516602,347.742767 323.097748,347.138763 319.684357,347.167969 
	C316.249847,347.197357 315.061920,345.982361 315.016785,342.516266 
	C314.891846,332.922882 314.754608,332.911591 305.058380,332.915283 
	C300.405182,332.917084 295.751984,332.979218 290.649567,333.038788 
M377.115570,285.846436 
	C377.115570,287.611603 377.115570,289.376770 377.115570,291.141937 
	C377.789062,291.048523 378.462555,290.955139 379.136078,290.861725 
	C378.673492,289.125732 378.210907,287.389709 377.115570,285.846436 
z"/>
<path fill="#777F9B" opacity="1.000000" stroke="none" 
	d="
M67.302956,131.100937 
	C70.231651,131.099625 73.160355,131.098297 76.904312,131.258606 
	C82.486755,131.292648 87.253937,131.165070 92.021126,131.037491 
	C102.993118,131.253830 102.998970,131.253830 103.002724,142.221115 
	C103.008339,158.656265 103.010269,175.091415 103.002640,191.526566 
	C102.999199,198.945038 102.987022,198.934479 95.803703,198.940628 
	C86.507317,198.948563 77.210945,198.975464 67.422501,199.034561 
	C66.930443,199.074921 66.897499,199.039413 66.937363,198.576279 
	C66.988167,195.967468 66.846176,193.807724 67.042107,191.679077 
	C67.442001,187.334412 65.529701,185.802063 61.273918,185.937698 
	C53.853371,186.174225 46.421112,186.043304 38.587387,185.979431 
	C33.225578,185.240723 28.270140,184.588989 23.314703,183.937241 
	C23.271317,176.952148 23.227930,169.967072 23.501625,162.386078 
	C24.074837,161.069824 24.330969,160.349487 24.590534,159.490707 
	C24.593966,159.352264 24.552013,159.078506 24.671423,159.041382 
	C24.790833,159.004272 25.038857,159.036362 25.279190,159.077576 
	C25.519526,159.118774 26.005009,159.072525 26.469345,159.141830 
	C38.526890,159.228760 50.124260,159.074036 61.711121,159.354065 
	C65.976234,159.457138 67.048767,157.916656 66.967590,153.914276 
	C66.813446,146.315216 67.162750,138.705963 67.302956,131.100937 
z"/>
<path fill="#1C2A57" opacity="1.000000" stroke="none" 
	d="
M67.206131,130.754150 
	C67.162750,138.705963 66.813446,146.315216 66.967590,153.914276 
	C67.048767,157.916656 65.976234,159.457138 61.711121,159.354065 
	C50.124260,159.074036 38.526890,159.228760 26.620876,158.757965 
	C26.523476,156.175232 26.870153,154.049210 26.927254,151.915436 
	C27.050217,147.320602 26.894320,142.716049 27.097603,138.126312 
	C27.281944,133.964249 28.916826,131.738037 33.865574,131.832504 
	C42.962246,132.006134 52.078373,131.374985 61.178337,130.918716 
	C62.469254,130.853989 63.715008,129.888626 64.981667,129.340118 
	C65.384232,129.243301 65.786789,129.146469 66.495674,129.026459 
	C66.904434,129.471298 67.006866,129.939331 67.206131,130.754150 
z"/>
<path fill="#46626B" opacity="1.000000" stroke="none" 
	d="
M479.014984,316.640442 
	C481.960663,315.466095 486.150116,315.076965 487.519623,312.907593 
	C489.041229,310.497314 488.050842,306.463837 488.052155,303.136993 
	C488.067902,262.982513 488.065735,222.828033 488.065826,182.673553 
	C488.065826,174.461441 488.060760,174.469177 479.707458,173.943848 
	C479.058594,173.903030 478.423187,173.648285 477.603760,173.264648 
	C477.425964,173.036331 477.704407,173.044617 478.132629,173.072693 
	C479.407745,173.002518 480.254700,172.904251 481.501099,172.811798 
	C483.232178,172.809784 484.563751,172.801941 486.280945,172.886185 
	C487.717499,173.035645 488.768494,173.093018 489.819458,173.150391 
	C489.819458,173.150391 489.976013,173.150497 490.005005,173.335144 
	C490.091797,173.685959 490.149597,173.852158 490.140564,174.481720 
	C490.051331,176.608734 490.010712,178.272400 490.009186,179.936081 
	C489.967743,225.541855 489.930298,271.147644 489.892181,316.753418 
	C489.732910,316.811676 489.573608,316.869965 488.740051,316.938232 
	C485.048859,316.845642 482.031921,316.743042 479.014984,316.640442 
z"/>
<path fill="#C7E1A2" opacity="1.000000" stroke="none" 
	d="
M195.873886,48.951042 
	C196.255081,36.858318 194.475494,35.688255 209.401398,35.979340 
	C216.555695,36.118866 223.715530,35.946808 230.871918,36.014435 
	C236.249115,36.065250 237.737350,37.551464 237.963974,42.743084 
	C238.279007,49.959423 238.298950,50.297832 245.226257,49.889397 
	C258.277496,49.119900 255.717880,51.813759 255.965302,60.823944 
	C256.065796,64.483032 256.082794,68.149902 255.965744,71.807732 
	C255.873016,74.705193 256.911621,76.090813 259.989532,76.063141 
	C264.305939,76.024338 268.634216,76.480469 272.936523,76.278900 
	C273.990967,76.229492 275.564331,74.593132 275.842834,73.432854 
	C276.334930,71.382561 276.108368,69.133553 276.014496,66.975021 
	C275.876343,63.798527 277.295013,62.330402 280.734100,62.949547 
	C281.006500,63.356884 280.996216,63.831581 280.631531,63.894638 
	C279.798096,64.091507 279.329407,64.225311 278.604431,64.638786 
	C278.262695,68.156616 278.476379,71.444359 277.951904,74.609779 
	C277.726166,75.972328 275.970520,77.081398 274.453491,78.230331 
	C268.028168,78.193306 262.059265,78.231560 255.686111,78.147789 
	C254.747269,75.653381 254.212708,73.281013 253.753342,70.531799 
	C253.778198,69.135841 253.727844,68.116707 253.751678,66.669487 
	C253.774170,64.798584 253.722473,63.355782 253.744232,61.564568 
	C253.768677,60.509644 253.719681,59.803131 253.746048,58.676689 
	C253.765182,56.842716 253.708969,55.428673 253.709198,53.616783 
	C252.378174,52.512981 251.022385,51.284756 249.597336,51.198326 
	C245.201874,50.931747 240.779968,51.101070 235.733307,51.101070 
	C235.733307,46.299915 235.733307,42.256557 235.733307,38.211720 
	C222.902527,38.211720 210.726135,38.211720 197.970627,38.211720 
	C197.970627,41.735176 197.970627,44.855801 197.715271,48.111084 
	C196.931229,48.480839 196.402557,48.715939 195.873886,48.951042 
z"/>
<path fill="#C4D7A0" opacity="1.000000" stroke="none" 
	d="
M90.878448,238.537659 
	C91.026642,273.939636 91.067070,308.947205 91.085022,344.407562 
	C90.712906,342.960083 90.062798,341.060486 90.058647,339.159485 
	C89.995163,310.082153 90.158379,281.003510 89.921654,251.927979 
	C89.858871,244.217468 88.788872,236.494537 87.752762,228.835297 
	C87.601410,227.716522 85.120003,226.246613 83.600304,226.093292 
	C76.583000,225.385330 76.773598,225.503952 75.858604,218.716461 
	C75.643013,217.117126 73.798981,215.099960 72.228180,214.479126 
	C70.181091,213.670029 67.618393,214.287216 65.353340,213.874649 
	C62.949242,213.436783 60.006863,212.928696 62.486412,209.077393 
	C63.923691,213.131256 67.388527,211.963104 70.177177,212.039886 
	C77.203583,212.233368 77.007294,212.196960 78.166023,219.158951 
	C78.413551,220.646164 80.517731,222.686539 82.035210,222.955292 
	C89.803886,224.331161 89.782280,224.158981 89.977104,231.782684 
	C90.031425,233.908249 90.494911,236.023361 90.878448,238.537659 
z"/>
<path fill="#B5D0A3" opacity="1.000000" stroke="none" 
	d="
M186.866257,64.837967 
	C177.116165,64.837967 167.366058,64.837967 156.620087,64.837967 
	C156.620087,61.607330 156.461273,58.555702 156.659973,55.527534 
	C156.912643,51.677177 155.421783,50.119251 151.485062,50.332745 
	C149.110748,50.461498 146.692398,49.778355 144.169037,48.686272 
	C144.044250,44.689224 144.044250,41.465946 144.044250,37.786263 
	C131.135117,37.786263 119.072678,37.786263 107.010231,37.786263 
	C108.424622,37.203712 109.830994,36.140339 111.254723,36.116581 
	C120.563873,35.961250 129.876968,36.064522 139.188385,36.012981 
	C143.866272,35.987087 146.526245,37.825829 145.954041,42.879944 
	C145.429611,47.512100 147.713547,49.389793 152.075760,48.963779 
	C156.931854,48.489529 158.013779,51.145496 158.041031,55.302330 
	C158.087097,62.332878 158.795731,62.856045 165.661499,63.061054 
	C170.627029,63.209320 175.588821,63.530682 180.547287,63.851887 
	C184.435928,64.103783 185.684692,62.111706 186.084869,58.493519 
	C186.434250,55.334530 184.095322,51.441463 188.571991,49.287609 
	C188.974792,49.485790 188.999176,49.970482 188.616943,50.113045 
	C187.778564,55.116398 187.322418,59.977180 186.866257,64.837967 
z"/>
<path fill="#48636E" opacity="1.000000" stroke="none" 
	d="
M106.796249,38.152145 
	C119.072678,37.786263 131.135117,37.786263 144.044250,37.786263 
	C144.044250,41.465946 144.044250,44.689224 143.974304,48.346039 
	C143.283173,47.598476 142.021042,46.342682 142.148514,45.248825 
	C142.801926,39.641888 138.891388,39.380302 135.243866,39.337978 
	C127.311501,39.245934 119.369507,39.382675 111.446350,39.748688 
	C110.262810,39.803364 108.874794,41.429882 108.118279,42.659561 
	C107.598480,43.504467 107.889458,44.934273 108.021652,46.079128 
	C108.561180,50.751648 106.323540,52.485897 101.913612,51.990330 
	C97.297256,51.471561 95.094398,52.342419 95.696945,58.124718 
	C96.318314,64.087593 95.001083,70.252495 94.260826,76.157455 
	C93.932564,67.688248 93.875488,59.390591 93.818413,51.092934 
	C97.674881,50.586040 101.531349,50.079147 105.994576,49.492500 
	C106.182739,45.978794 106.382500,42.248413 106.796249,38.152145 
z"/>
<path fill="#486482" opacity="1.000000" stroke="none" 
	d="
M450.164734,104.916023 
	C449.445648,103.120789 448.105713,101.315331 448.135040,99.532410 
	C448.198761,95.660789 447.268250,93.878952 442.887329,93.836113 
	C435.312378,93.762039 434.411652,92.436897 435.639282,84.755653 
	C436.169189,81.439880 435.007477,80.022354 431.783447,80.019287 
	C426.129395,80.013901 420.470947,79.868896 414.822754,80.048126 
	C410.769867,80.176727 409.252808,78.375771 408.958984,74.475113 
	C408.741211,71.584305 407.684540,68.756691 407.282715,65.477386 
	C408.378174,64.782982 409.192535,64.512123 410.300446,64.512863 
	C410.792480,69.046333 410.990997,73.308212 411.203217,77.864510 
	C419.716309,77.864510 427.828461,77.864510 435.940613,77.864502 
	C436.263214,78.106140 436.585785,78.347771 437.036255,79.275360 
	C437.036743,91.756615 437.036743,91.756615 448.947998,91.246300 
	C449.235321,91.698753 449.522644,92.151215 449.857727,93.293747 
	C449.991913,97.627884 450.078339,101.271957 450.164734,104.916023 
z"/>
<path fill="#2A3B48" opacity="1.000000" stroke="none" 
	d="
M64.523399,129.250336 
	C63.715008,129.888626 62.469254,130.853989 61.178337,130.918716 
	C52.078373,131.374985 42.962246,132.006134 33.865574,131.832504 
	C28.916826,131.738037 27.281944,133.964249 27.097603,138.126312 
	C26.894320,142.716049 27.050217,147.320602 26.927254,151.915436 
	C26.870153,154.049210 26.523476,156.175232 26.156540,158.688660 
	C26.005009,159.072525 25.519526,159.118774 25.276793,158.604767 
	C25.178732,148.437012 25.323404,138.783249 25.468075,129.129486 
	C38.333759,129.139847 51.199448,129.150192 64.523399,129.250336 
z"/>
<path fill="#C0DBBA" opacity="1.000000" stroke="none" 
	d="
M490.139465,316.572754 
	C489.930298,271.147644 489.967743,225.541855 490.009186,179.936081 
	C490.010712,178.272400 490.051331,176.608734 490.344360,174.463852 
	C490.614960,173.982635 491.021698,173.938385 491.021698,173.938385 
	C491.051147,174.386749 491.080597,174.835098 491.098022,175.890869 
	C491.092987,176.678940 491.099945,176.859634 491.106873,177.040314 
	C491.087799,222.040634 491.068695,267.040955 491.042297,312.771332 
	C491.043060,313.676575 491.051117,313.851746 491.059204,314.026947 
	C490.835052,314.815338 490.610870,315.603729 490.139465,316.572754 
z"/>
<path fill="#BDDBB7" opacity="1.000000" stroke="none" 
	d="
M280.996216,63.831581 
	C280.996216,63.831581 281.006500,63.356884 281.017456,63.118515 
	C323.375092,62.897175 365.721741,62.914207 408.527527,63.146339 
	C408.986664,63.361439 408.971008,63.794502 408.510132,63.865234 
	C399.412598,63.954437 390.775970,63.997852 382.139374,63.986973 
	C348.424988,63.944504 314.710602,63.884846 280.996216,63.831581 
z"/>
<path fill="#405877" opacity="1.000000" stroke="none" 
	d="
M465.671143,372.933411 
	C466.161804,372.575256 467.064606,372.081665 468.001556,372.004852 
	C475.966827,371.351837 475.986481,371.367218 475.989166,363.550171 
	C475.994019,349.440247 475.952820,335.330170 476.028503,321.220673 
	C476.036346,319.759827 476.704193,318.302521 477.317871,317.375854 
	C477.657593,335.925964 477.745239,353.943878 477.832916,371.961792 
	C473.921661,372.304901 470.010376,372.648010 465.671143,372.933411 
z"/>
<path fill="#8D9E98" opacity="1.000000" stroke="none" 
	d="
M23.287184,184.317657 
	C28.270140,184.588989 33.225578,185.240723 38.588287,186.435577 
	C39.005520,189.977570 38.642506,193.045654 39.180653,195.946579 
	C39.455307,197.427124 41.340008,199.735519 42.508514,199.742508 
	C50.636478,199.791214 58.767475,199.334229 66.897499,199.039398 
	C66.897499,199.039413 66.930443,199.074921 66.953499,199.070343 
	C66.938759,199.529694 66.900963,199.993607 66.340652,200.764023 
	C56.562874,201.063721 47.307598,201.056931 38.052319,201.050140 
	C37.729565,198.499451 37.194530,195.954483 37.125576,193.396957 
	C36.949230,186.856598 37.022926,187.044830 30.613319,186.731552 
	C28.134890,186.610397 25.709316,185.407928 23.287184,184.317657 
z"/>
<path fill="#3F5B78" opacity="1.000000" stroke="none" 
	d="
M464.131195,131.834045 
	C463.427032,130.370041 462.192474,128.933258 462.115692,127.437050 
	C461.859924,122.453835 462.069153,117.448685 462.006866,112.453102 
	C461.937439,106.885254 460.905670,106.082771 455.531891,106.564568 
	C454.192230,106.684677 452.781097,106.007401 451.651794,105.339722 
	C455.600006,104.891792 459.299255,104.800766 462.998505,104.709740 
	C463.177032,104.769325 463.355530,104.828911 463.807617,105.397575 
	C464.102081,108.262535 464.122925,110.618416 464.062469,113.436920 
	C464.028931,118.950768 464.076660,124.001991 464.111053,129.279541 
	C464.097748,129.505875 464.157562,129.955368 464.107361,130.266632 
	C464.081818,130.996597 464.106506,131.415329 464.131195,131.834045 
z"/>
<path fill="#C7E1A2" opacity="1.000000" stroke="none" 
	d="
M408.971008,63.794502 
	C408.971008,63.794502 408.986664,63.361439 408.996582,63.144306 
	C410.142639,63.686562 411.525726,64.255653 412.316284,65.281372 
	C412.745789,65.838638 412.104858,67.169289 412.053955,68.156631 
	C411.660614,75.791428 412.165833,76.097809 419.615540,76.109001 
	C424.963043,76.117043 430.309570,76.784576 435.798584,77.511200 
	C427.828461,77.864510 419.716309,77.864510 411.203217,77.864510 
	C410.990997,73.308212 410.792480,69.046333 410.049927,64.380722 
	C409.327576,63.916164 409.149292,63.855335 408.971008,63.794502 
z"/>
<path fill="#C6E1A5" opacity="1.000000" stroke="none" 
	d="
M478.118958,371.658142 
	C477.745239,353.943878 477.657593,335.925964 477.602905,317.439423 
	C477.869232,316.930634 478.102570,316.890472 478.675476,316.745392 
	C482.031921,316.743042 485.048859,316.845642 488.508240,317.043060 
	C488.188782,317.420319 487.445007,317.876465 486.662170,317.958191 
	C479.022125,318.755615 479.017059,318.737793 479.015717,326.274017 
	C479.013397,339.516571 479.038269,352.759216 478.988495,366.001587 
	C478.981781,367.786591 478.608521,369.570221 478.118958,371.658142 
z"/>
<path fill="#C3DDB0" opacity="1.000000" stroke="none" 
	d="
M93.495010,51.196640 
	C93.875488,59.390591 93.932564,67.688248 94.009651,76.443436 
	C89.732468,76.975487 85.435265,77.050011 80.711266,77.044960 
	C82.524918,76.636398 84.791054,75.917664 87.000221,76.063271 
	C91.031158,76.328964 92.257805,74.660965 92.105057,70.825462 
	C91.880600,65.189827 92.024910,59.536800 92.132652,53.893490 
	C92.149261,53.022816 92.809189,52.164421 93.495010,51.196640 
z"/>
<path fill="#C7E09B" opacity="1.000000" stroke="none" 
	d="
M485.895355,172.794113 
	C484.563751,172.801941 483.232178,172.809784 481.198120,172.646530 
	C479.583282,172.396179 478.670837,172.316895 477.687469,171.758087 
	C477.611755,158.513412 477.606995,145.748276 477.758575,133.020416 
	C477.914886,133.057693 478.235657,133.037476 478.235657,133.037476 
	C478.498047,138.741486 478.844788,144.443268 478.996857,150.150208 
	C479.124420,154.938736 479.289246,159.751938 478.953156,164.520081 
	C478.602295,169.497879 480.433807,171.645325 485.455322,171.039108 
	C486.389160,170.926376 487.384888,171.326233 488.355194,171.776215 
	C487.537354,172.306625 486.716339,172.550369 485.895355,172.794113 
z"/>
<path fill="#C4D7A0" opacity="1.000000" stroke="none" 
	d="
M38.380699,201.292572 
	C47.307598,201.056931 56.562874,201.063721 66.264084,201.105179 
	C66.761429,201.574036 66.812828,202.008240 66.875717,202.771606 
	C65.601662,204.201935 64.316101,205.303085 62.913536,206.723450 
	C60.851307,200.614914 55.533951,202.171951 50.926952,202.015472 
	C46.853588,201.877106 42.781647,201.696793 38.380699,201.292572 
z"/>
<path fill="#B8D0A3" opacity="1.000000" stroke="none" 
	d="
M462.828186,104.377373 
	C459.299255,104.800766 455.600006,104.891792 451.442200,105.054428 
	C450.983673,105.126053 450.584229,104.982353 450.374512,104.949188 
	C450.078339,101.271957 449.991913,97.627884 449.970520,93.538246 
	C450.674683,94.746620 451.900330,96.423561 451.836578,98.049942 
	C451.682037,101.992104 453.275787,103.321213 457.060242,103.114998 
	C458.903748,103.014557 460.790619,103.709900 462.828186,104.377373 
z"/>
<path fill="#B8D0A3" opacity="1.000000" stroke="none" 
	d="
M448.668030,90.955399 
	C437.036743,91.756615 437.036743,91.756615 437.224426,79.513573 
	C437.844727,80.462547 438.986298,81.913559 438.861847,83.246338 
	C438.382965,88.374542 440.259979,90.726128 445.555328,90.072563 
	C446.461395,89.960739 447.441895,90.451897 448.668030,90.955399 
z"/>
<path fill="#C9DDA5" opacity="1.000000" stroke="none" 
	d="
M25.140070,129.389023 
	C25.323404,138.783249 25.178732,148.437012 25.036457,158.563568 
	C25.038857,159.036362 24.790833,159.004272 24.612270,159.110199 
	C24.433708,159.216141 24.168966,159.448059 23.901546,159.561707 
	C23.451647,159.740402 23.269171,159.805420 23.086693,159.870422 
	C23.386084,151.735336 23.647104,143.598511 24.012793,135.466400 
	C24.100361,133.519089 24.536333,131.587418 25.140070,129.389023 
z"/>
<path fill="#B8D0A3" opacity="1.000000" stroke="none" 
	d="
M464.143738,112.974289 
	C464.122925,110.618416 464.102081,108.262535 464.081116,105.467392 
	C464.691956,105.899673 465.830200,106.771423 465.829895,107.642761 
	C465.827515,114.232803 465.601654,120.822769 465.174347,127.282791 
	C464.649994,122.426643 464.396881,117.700462 464.143738,112.974289 
z"/>
<path fill="#89937A" opacity="1.000000" stroke="none" 
	d="
M329.922394,348.530457 
	C330.440430,348.589966 331.381439,349.104279 331.389465,349.632690 
	C331.490784,356.318665 331.471649,363.006775 331.420868,369.693909 
	C331.418121,370.055756 330.863068,370.413452 330.229431,370.847839 
	C329.899750,363.612335 329.905731,356.302094 329.922394,348.530457 
z"/>
<path fill="#B8D0A3" opacity="1.000000" stroke="none" 
	d="
M465.240906,129.786957 
	C469.034790,130.146896 472.828674,130.506821 476.780731,131.294296 
	C476.938904,131.721832 476.978180,131.967621 476.564941,131.879730 
	C472.478668,131.659882 468.805634,131.527954 465.062866,131.083771 
	C464.942780,130.564301 464.892365,130.357056 464.940979,130.058289 
	C465.039978,129.966766 465.240906,129.786957 465.240906,129.786957 
z"/>
<path fill="#8CA793" opacity="1.000000" stroke="none" 
	d="
M464.062500,113.436920 
	C464.396881,117.700462 464.649994,122.426643 464.934784,127.629219 
	C464.966461,128.105621 464.960083,128.453720 464.754028,128.695435 
	C464.547974,128.937149 464.124359,129.053207 464.124359,129.053207 
	C464.076660,124.001991 464.028931,118.950768 464.062500,113.436920 
z"/>
<path fill="#C7E1A2" opacity="1.000000" stroke="none" 
	d="
M188.999176,49.970482 
	C188.999176,49.970482 188.974792,49.485790 188.962814,49.243401 
	C190.463287,48.856026 191.975723,48.711037 193.753082,49.018730 
	C194.018005,49.471416 193.997253,49.954128 193.583588,50.011902 
	C191.779678,50.036613 190.389420,50.003548 188.999176,49.970482 
z"/>
<path fill="#878D99" opacity="1.000000" stroke="none" 
	d="
M464.245117,382.569763 
	C464.134796,379.783264 464.249420,376.681274 464.698303,373.348328 
	C464.845093,376.162994 464.657593,379.208649 464.245117,382.569763 
z"/>
<path fill="#B5D0A3" opacity="1.000000" stroke="none" 
	d="
M193.997253,49.954128 
	C193.997253,49.954128 194.018005,49.471416 194.027390,49.229866 
	C194.445847,48.981647 194.854919,48.974976 195.568939,48.959671 
	C196.402557,48.715939 196.931229,48.480839 197.740753,48.505409 
	C196.680161,49.161427 195.338715,49.557777 193.997253,49.954128 
z"/>
<path fill="#8D9E98" opacity="1.000000" stroke="none" 
	d="
M23.075172,160.238953 
	C23.269171,159.805420 23.451647,159.740402 23.998600,159.623627 
	C24.363073,159.571899 24.587105,159.629150 24.587103,159.629150 
	C24.330969,160.349487 24.074837,161.069824 23.546726,161.923431 
	C23.204382,161.573624 23.134018,161.090546 23.075172,160.238953 
z"/>
<path fill="#8CA793" opacity="1.000000" stroke="none" 
	d="
M486.280945,172.886200 
	C486.716339,172.550369 487.537354,172.306625 488.680298,172.007126 
	C489.232941,172.189667 489.463623,172.427979 489.756897,172.908325 
	C488.768494,173.093018 487.717499,173.035645 486.280945,172.886200 
z"/>
<path fill="#8CA793" opacity="1.000000" stroke="none" 
	d="
M476.977203,131.603424 
	C477.308533,131.812805 477.601562,132.140625 478.065125,132.752960 
	C478.235657,133.037476 477.914886,133.057693 477.602112,132.888885 
	C477.124512,132.494537 477.020782,132.243713 476.978180,131.967621 
	C476.978180,131.967621 476.938904,131.721832 476.977203,131.603424 
z"/>
<path fill="#B8D0A3" opacity="1.000000" stroke="none" 
	d="
M464.111053,129.279541 
	C464.124359,129.053207 464.547974,128.937149 464.757446,128.869476 
	C465.012421,128.966324 465.057953,129.130844 465.172180,129.541153 
	C465.240906,129.786957 465.039978,129.966766 464.772888,130.000275 
	C464.505829,130.033798 464.157562,129.955368 464.157562,129.955368 
	C464.157562,129.955368 464.097748,129.505875 464.111053,129.279541 
z"/>
<path fill="#C7E09B" opacity="1.000000" stroke="none" 
	d="
M490.883087,173.746002 
	C491.021698,173.938385 490.614960,173.982635 490.411194,174.000488 
	C490.149597,173.852158 490.091797,173.685959 490.008636,173.256943 
	C490.276062,173.127487 490.529785,173.313995 490.883087,173.746002 
z"/>
<path fill="#C7E09B" opacity="1.000000" stroke="none" 
	d="
M491.164185,313.910767 
	C491.051117,313.851746 491.043060,313.676575 491.044373,313.238434 
	C491.332153,313.203522 491.403961,313.476562 491.164185,313.910767 
z"/>
<path fill="#C7E09B" opacity="1.000000" stroke="none" 
	d="
M491.208069,176.920380 
	C491.099945,176.859634 491.092987,176.678940 491.106689,176.227753 
	C491.381073,176.204163 491.441711,176.485214 491.208069,176.920380 
z"/>
<path fill="#8190C2" opacity="1.000000" stroke="none" 
	d="
M263.840668,137.285217 
	C264.079895,159.257309 264.034943,180.842285 263.999390,202.427261 
	C263.984985,211.176178 263.993927,211.190994 255.093567,210.964951 
	C253.951340,210.935959 252.815445,210.658401 251.331970,209.926498 
	C250.941040,208.909409 250.894760,208.461823 250.848465,208.014236 
	C250.899567,177.242279 250.950317,146.470337 251.002060,115.698380 
	C251.012222,109.649147 255.837311,106.557838 261.281158,109.354309 
	C262.210754,109.831841 262.803711,111.769783 262.836456,113.051346 
	C262.993591,119.202034 262.856445,125.359619 262.933807,131.513367 
	C262.956390,133.310623 263.341370,135.103302 263.840668,137.285217 
z"/>
<path fill="#808BA0" opacity="1.000000" stroke="none" 
	d="
M396.476013,265.001831 
	C396.920776,264.666321 397.808777,264.171265 398.746429,264.044769 
	C403.112762,263.455811 403.117676,263.492279 404.213531,258.874908 
	C405.383972,260.312103 406.309967,261.449188 408.140533,263.696960 
	C408.924866,261.380066 409.815063,259.829071 409.918060,258.227448 
	C410.150848,254.607971 409.796234,250.949677 410.047882,247.332733 
	C410.355194,242.916351 409.490814,239.785233 404.191193,239.768402 
	C403.304749,239.765579 402.420807,238.973404 401.281219,238.290955 
	C411.058197,237.665756 411.055481,237.665756 411.059906,227.690781 
	C411.061798,223.393875 411.032928,219.096222 411.103546,214.800323 
	C411.145691,212.237854 412.009857,210.848572 415.104279,211.467712 
	C418.461884,212.139572 421.942871,212.194977 425.671509,213.230698 
	C426.008667,221.955780 426.044312,229.969345 426.079956,237.982925 
	C424.169861,238.345688 422.264008,238.994202 420.348907,239.022842 
	C410.958862,239.163284 411.936920,238.293198 411.884827,247.795822 
	C411.862915,251.793594 411.633118,255.810013 411.936768,259.784424 
	C412.264496,264.073700 410.464600,265.402740 406.432739,265.068542 
	C403.289246,264.807983 400.107086,265.013611 396.476013,265.001831 
z"/>
<path fill="#1C2E5F" opacity="1.000000" stroke="none" 
	d="
M91.990280,130.573181 
	C87.253937,131.165070 82.486755,131.292648 77.347702,131.232635 
	C77.015411,130.386429 77.079735,129.728195 77.090858,129.069092 
	C77.273819,118.231171 77.266609,118.339287 88.000404,118.905548 
	C91.092209,119.068665 92.038391,120.354675 91.910339,123.179718 
	C91.805893,125.483955 91.934288,127.798744 91.990280,130.573181 
z"/>
<path fill="#4C6472" opacity="1.000000" stroke="none" 
	d="
M193.583588,50.011902 
	C195.338715,49.557777 196.680161,49.161427 197.996124,48.370750 
	C197.970627,44.855801 197.970627,41.735176 197.970627,38.211720 
	C210.726135,38.211720 222.902527,38.211720 235.733307,38.211720 
	C235.733307,42.256557 235.733307,46.299915 235.733307,51.101070 
	C240.779968,51.101070 245.201874,50.931747 249.597336,51.198326 
	C251.022385,51.284756 252.378174,52.512981 253.447601,53.610764 
	C252.781693,53.996815 252.433823,53.991047 252.085953,53.985279 
	C248.184357,53.633785 244.289001,53.144688 240.379501,52.967827 
	C236.098923,52.774178 233.639465,51.479240 233.928467,46.447044 
	C234.288589,40.176888 233.277222,39.304180 226.991074,39.164051 
	C220.246368,39.013695 213.490280,38.976318 206.749374,39.199081 
	C202.491867,39.339775 198.872269,40.467293 199.911530,46.223751 
	C200.636642,50.240204 198.479813,51.874180 194.521042,52.003757 
	C188.018661,52.216599 187.567627,52.999916 188.250443,59.374275 
	C188.426743,61.020130 187.736160,62.758842 187.155029,64.646431 
	C187.322418,59.977180 187.778564,55.116398 188.616943,50.113045 
	C190.389420,50.003548 191.779678,50.036613 193.583588,50.011902 
z"/>
<path fill="#192B5D" opacity="1.000000" stroke="none" 
	d="
M132.525543,131.636536 
	C131.774750,127.984596 131.289200,124.478661 131.263870,120.969391 
	C131.259232,120.327377 133.064117,119.285103 134.145432,119.107391 
	C136.077194,118.789909 138.113998,119.163269 140.071167,118.937798 
	C144.071320,118.476982 145.186234,120.255501 145.136261,124.062820 
	C145.032501,131.968979 145.206604,131.978119 137.399353,131.929443 
	C135.915649,131.920197 134.432419,131.832764 132.525543,131.636536 
z"/>
<path fill="#466368" opacity="1.000000" stroke="none" 
	d="
M408.510132,63.865234 
	C409.149292,63.855335 409.327576,63.916164 409.756409,64.109131 
	C409.192535,64.512123 408.378174,64.782982 407.235229,65.099174 
	C365.683960,65.122566 324.461212,65.099007 283.238495,65.088379 
	C282.245422,65.088127 281.252319,65.232086 279.682007,65.111084 
	C279.023438,64.728638 278.942078,64.543884 278.860687,64.359131 
	C279.329407,64.225311 279.798096,64.091507 280.631531,63.894638 
	C314.710602,63.884846 348.424988,63.944504 382.139374,63.986973 
	C390.775970,63.997852 399.412598,63.954437 408.510132,63.865234 
z"/>
<path fill="#486482" opacity="1.000000" stroke="none" 
	d="
M278.604431,64.638794 
	C278.942078,64.543884 279.023438,64.728638 279.244659,65.187714 
	C279.699066,69.078804 280.422302,72.729324 280.127625,76.295753 
	C280.009430,77.726295 277.707977,80.045708 276.306488,80.117004 
	C270.032013,80.436234 263.723999,80.056198 257.427490,79.999245 
	C253.853775,79.966911 251.853592,78.660423 251.957596,74.686935 
	C252.130005,68.100960 252.026291,61.507763 252.062439,54.451447 
	C252.433823,53.991047 252.781693,53.996815 253.391144,54.008606 
	C253.708969,55.428673 253.765182,56.842716 253.602310,58.889885 
	C253.479065,60.319664 253.574921,61.116318 253.670776,61.912975 
	C253.722473,63.355782 253.774170,64.798584 253.597321,66.917313 
	C253.471893,68.698372 253.575027,69.803505 253.678146,70.908638 
	C254.212708,73.281013 254.747269,75.653381 256.041901,78.335281 
	C262.837952,78.531746 268.873962,78.418694 274.909912,78.305626 
	C275.970520,77.081398 277.726166,75.972328 277.951904,74.609779 
	C278.476379,71.444359 278.262695,68.156616 278.604431,64.638794 
z"/>
<path fill="#8690A8" opacity="1.000000" stroke="none" 
	d="
M382.720337,329.461639 
	C382.087677,328.157288 381.088226,326.404358 381.071075,324.641876 
	C380.939087,311.075287 380.997650,297.506836 381.011597,283.154175 
	C381.559326,281.603882 382.092590,280.838379 382.625824,280.072845 
	C382.686707,296.384766 382.747620,312.696716 382.720337,329.461639 
z"/>
<path fill="#415991" opacity="1.000000" stroke="none" 
	d="
M370.652740,265.821594 
	C370.537781,266.182281 370.098480,266.282837 368.875397,266.354523 
	C346.067078,266.339874 324.042603,266.354095 302.018066,266.368317 
	C301.661835,261.573029 301.305603,256.777740 300.909180,251.524170 
	C301.578979,253.372803 302.800659,255.657379 302.902405,257.990814 
	C303.200928,264.835114 303.154510,264.991333 310.000549,264.995758 
	C328.142700,265.007507 346.284912,264.982758 364.426971,265.024628 
	C366.394531,265.029144 368.361298,265.374298 370.652740,265.821594 
z"/>
<path fill="#40597A" opacity="1.000000" stroke="none" 
	d="
M476.564941,131.879730 
	C477.020782,132.243713 477.124512,132.494537 477.445801,132.851624 
	C477.606995,145.748276 477.611755,158.513412 477.648621,171.957825 
	C477.680725,172.637085 477.704407,173.044617 477.704407,173.044617 
	C477.704407,173.044617 477.425964,173.036331 477.288544,173.030884 
	C476.761566,170.943634 476.064453,168.866089 476.035614,166.779282 
	C475.909302,157.648163 475.693268,148.502151 476.085449,139.386322 
	C476.303223,134.324661 474.738770,132.273407 469.662109,132.963013 
	C468.396912,133.134857 467.051331,132.714630 465.434570,132.165329 
	C465.126434,131.764099 465.132568,131.396011 465.132568,131.396011 
	C468.805634,131.527954 472.478668,131.659882 476.564941,131.879730 
z"/>
<path fill="#848FA9" opacity="1.000000" stroke="none" 
	d="
M396.961731,371.983276 
	C396.974152,361.506897 396.941467,351.030060 397.043579,340.554535 
	C397.060516,338.816589 397.665833,337.084412 398.308533,335.149048 
	C398.714630,335.403900 398.811493,335.859253 398.925873,337.127258 
	C398.970306,349.290283 398.997223,360.640656 399.024170,371.991058 
	C399.024170,371.991058 398.952026,371.923462 398.590302,371.938354 
	C397.806305,371.963226 397.384003,371.973236 396.961731,371.983276 
z"/>
<path fill="#858D9D" opacity="1.000000" stroke="none" 
	d="
M382.925354,279.787781 
	C382.092590,280.838379 381.559326,281.603882 381.010345,282.685669 
	C376.699615,280.318726 380.044525,278.080719 381.991394,277.312195 
	C385.658142,275.864716 387.588654,273.875244 387.417694,269.895508 
	C387.399689,269.475555 388.178375,269.021362 388.739807,268.419830 
	C389.902771,270.931641 390.926483,273.142639 391.950195,275.353638 
	C392.824646,274.709198 393.699097,274.064728 394.830078,273.215240 
	C395.101990,274.086212 395.117310,275.162201 394.888855,276.770752 
	C394.383667,277.511932 394.180786,277.767090 394.036499,278.068848 
	C390.432617,278.546814 386.828735,279.024780 382.925354,279.787781 
z"/>
<path fill="#3D5693" opacity="1.000000" stroke="none" 
	d="
M250.451416,208.094849 
	C250.894760,208.461823 250.941040,208.909409 250.996429,209.694855 
	C243.735962,210.065399 236.457718,210.323578 229.200089,210.044937 
	C224.950256,209.881775 223.564850,211.488403 223.985992,215.493546 
	C224.209366,217.617889 224.284012,219.832764 223.917709,221.917480 
	C223.679489,223.273193 222.525970,224.468079 221.392090,225.702179 
	C221.335556,222.237259 221.965744,218.802139 221.930283,215.373901 
	C221.883209,210.821884 223.443466,208.820480 228.317978,208.899200 
	C235.557678,209.016144 242.808365,208.450562 250.451416,208.094849 
z"/>
<path fill="#808BA0" opacity="1.000000" stroke="none" 
	d="
M393.510620,251.201080 
	C392.574005,251.845886 391.213715,252.823257 389.787323,252.931885 
	C383.285126,253.427063 383.146942,253.572800 382.945801,260.264374 
	C382.890533,262.103973 382.166260,263.923523 381.379639,265.896362 
	C381.010315,266.040497 380.984222,265.991699 380.971985,265.554932 
	C380.878143,263.085022 380.796539,261.051819 380.714966,259.018646 
	C380.732361,258.566162 380.749756,258.113678 380.804688,256.930359 
	C380.809723,255.142593 380.777283,254.085709 380.744812,253.028809 
	C384.848724,252.397064 388.952637,251.765335 393.510620,251.201080 
z"/>
<path fill="#96A5D9" opacity="1.000000" stroke="none" 
	d="
M288.017822,246.519836 
	C287.063232,245.354233 285.060272,243.392960 285.434906,242.146072 
	C288.439728,232.145142 287.025116,222.156540 286.002350,211.740265 
	C286.694275,212.883652 287.981415,214.416977 288.008453,215.972214 
	C288.182861,225.997192 288.081848,236.026978 288.017822,246.519836 
z"/>
<path fill="#3D5492" opacity="1.000000" stroke="none" 
	d="
M426.398499,237.873352 
	C426.044312,229.969345 426.008667,221.955780 426.001068,213.475204 
	C426.677673,214.021271 427.874115,215.027893 427.886169,216.048462 
	C427.967377,222.938126 427.812317,229.831039 427.667786,236.721527 
	C427.660370,237.075439 427.047821,237.416656 426.398499,237.873352 
z"/>
<path fill="#3D5791" opacity="1.000000" stroke="none" 
	d="
M399.260559,371.653137 
	C398.997223,360.640656 398.970306,349.290283 398.977570,337.472900 
	C399.341553,339.072601 399.963013,341.140961 399.951172,343.205719 
	C399.897400,352.576111 399.665039,361.945496 399.260559,371.653137 
z"/>
<path fill="#8391A6" opacity="1.000000" stroke="none" 
	d="
M381.025574,266.063599 
	C379.115967,269.722534 375.088440,270.196503 371.003662,266.927490 
	C371.362061,266.467285 371.815674,266.336304 373.065887,266.173798 
	C376.236420,266.092041 378.610321,266.041870 380.984222,265.991699 
	C380.984222,265.991699 381.010315,266.040497 381.025574,266.063599 
z"/>
<path fill="#808BA0" opacity="1.000000" stroke="none" 
	d="
M398.583618,237.959000 
	C397.968933,241.868698 396.941254,245.760132 395.592346,249.807007 
	C395.205658,247.054153 394.831757,244.103867 395.219543,241.257324 
	C395.385315,240.040359 397.138672,239.039673 398.583618,237.959000 
z"/>
<path fill="#415991" opacity="1.000000" stroke="none" 
	d="
M380.971985,265.554932 
	C378.610321,266.041870 376.236420,266.092041 373.415161,266.114594 
	C376.850555,265.418121 379.333221,263.274017 380.406616,259.169312 
	C380.796539,261.051819 380.878143,263.085022 380.971985,265.554932 
z"/>
<path fill="#848FA9" opacity="1.000000" stroke="none" 
	d="
M398.601990,332.790100 
	C396.134460,332.946960 393.665894,332.786346 391.091064,332.296661 
	C393.523529,332.135986 396.062286,332.304321 398.601990,332.790100 
z"/>
<path fill="#858D9D" opacity="1.000000" stroke="none" 
	d="
M395.560486,268.620483 
	C394.686981,268.374878 393.938629,267.740601 393.190308,267.106323 
	C393.883087,266.421448 394.575867,265.736603 395.619263,265.021057 
	C395.875092,266.070862 395.780365,267.151337 395.560486,268.620483 
z"/>
<path fill="#415991" opacity="1.000000" stroke="none" 
	d="
M380.462158,253.138275 
	C380.777283,254.085709 380.809723,255.142593 380.774292,256.591797 
	C380.530731,255.738617 380.355103,254.493179 380.462158,253.138275 
z"/>
<path fill="#848FA9" opacity="1.000000" stroke="none" 
	d="
M386.635498,331.929749 
	C386.060760,332.158081 385.113342,332.354553 384.094238,332.242310 
	C384.769257,331.921692 385.516052,331.909760 386.635498,331.929749 
z"/>
<path fill="#96A5D9" opacity="1.000000" stroke="none" 
	d="
M278.836487,177.745926 
	C278.321899,177.775208 277.815857,177.552841 277.125305,177.116669 
	C277.575531,177.100021 278.210297,177.297150 278.836487,177.745926 
z"/>
<path fill="#3D5693" opacity="1.000000" stroke="none" 
	d="
M218.645538,225.524048 
	C218.173172,225.700989 217.496643,225.742355 216.486267,225.719864 
	C216.915421,225.566818 217.678406,225.477646 218.645538,225.524048 
z"/>
<path fill="#697BA2" opacity="1.000000" stroke="none" 
	d="
M396.776978,372.119629 
	C397.384003,371.973236 397.806305,371.963226 398.542358,371.926422 
	C398.123474,372.264252 397.390869,372.628906 396.329041,372.973358 
	C396.159302,372.688446 396.356781,372.456085 396.776978,372.119629 
z"/>
<path fill="#3D5791" opacity="1.000000" stroke="none" 
	d="
M399.184265,334.818726 
	C398.991821,334.546570 398.972229,334.108978 398.980652,333.343903 
	C399.124817,333.562073 399.240936,334.107666 399.184265,334.818726 
z"/>
<path fill="#8CA793" opacity="1.000000" stroke="none" 
	d="
M465.062866,131.083771 
	C465.132568,131.396011 465.126434,131.764099 465.099121,131.946533 
	C465.071777,132.128952 464.605560,131.970139 464.368378,131.902100 
	C464.106506,131.415329 464.081818,130.996597 464.107361,130.266632 
	C464.157562,129.955368 464.505829,130.033798 464.673889,130.091812 
	C464.892365,130.357056 464.942780,130.564301 465.062866,131.083771 
z"/>
<path fill="#96A5D9" opacity="1.000000" stroke="none" 
	d="
M278.854187,209.740387 
	C278.701630,209.678467 278.585999,209.375504 278.652344,209.043762 
	C278.834290,209.014984 278.891113,209.499359 278.854187,209.740387 
z"/>
<path fill="#697BA2" opacity="1.000000" stroke="none" 
	d="
M394.257996,277.953278 
	C394.180786,277.767090 394.383667,277.511932 394.854065,277.173126 
	C394.954590,277.371002 394.760071,277.635925 394.257996,277.953278 
z"/>
<path fill="#96A5D9" opacity="1.000000" stroke="none" 
	d="
M280.652863,211.514893 
	C280.663239,211.659363 280.406586,211.838455 280.014404,211.874451 
	C280.047821,211.670746 280.216827,211.610107 280.652863,211.514893 
z"/>
<path fill="#78809C" opacity="1.000000" stroke="none" 
	d="
M213.482269,318.975555 
	C213.011597,309.319183 213.007919,299.654327 213.002167,289.528015 
	C220.429581,289.073029 227.861252,289.186859 235.287582,289.036713 
	C238.579819,288.970154 240.163834,289.863037 240.054703,293.504242 
	C239.845840,300.472321 239.856873,307.455475 240.061249,314.423981 
	C240.165421,317.975708 238.727493,319.065369 235.369217,318.995636 
	C228.232117,318.847504 221.089600,318.960846 213.482269,318.975555 
z"/>
<path fill="#96A5D9" opacity="1.000000" stroke="none" 
	d="
M279.243805,211.781921 
	C279.286957,211.795746 278.989990,212.155487 278.989990,212.155487 
	C278.989990,212.155487 278.995728,211.856369 279.088501,211.767975 
	C279.181305,211.679596 279.200653,211.768112 279.243805,211.781921 
z"/>
<path fill="#8391A6" opacity="1.000000" stroke="none" 
	d="
M302.070526,266.730621 
	C324.042603,266.354095 346.067078,266.339874 368.550201,266.446533 
	C367.633392,267.376129 366.263428,268.878296 364.881714,268.889191 
	C345.315582,269.043365 325.747589,269.032806 306.180969,268.914001 
	C304.824677,268.905792 303.475464,267.727234 302.070526,266.730621 
z"/>
<path fill="#858D9D" opacity="1.000000" stroke="none" 
	d="
M377.431946,285.750061 
	C378.210907,287.389709 378.673492,289.125732 379.136078,290.861725 
	C378.462555,290.955139 377.789062,291.048523 377.115570,291.141937 
	C377.115570,289.376770 377.115570,287.611603 377.431946,285.750061 
z"/>
<path fill="#8391BF" opacity="1.000000" stroke="none" 
	d="
M66.937363,198.576263 
	C58.767475,199.334229 50.636478,199.791214 42.508514,199.742508 
	C41.340008,199.735519 39.455307,197.427124 39.180653,195.946579 
	C38.642506,193.045654 39.005520,189.977570 38.994659,186.522522 
	C46.421112,186.043304 53.853371,186.174225 61.273918,185.937698 
	C65.529701,185.802063 67.442001,187.334412 67.042107,191.679077 
	C66.846176,193.807724 66.988167,195.967468 66.937363,198.576263 
z"/>
<path fill="#CEE480" opacity="1.000000" stroke="none" 
	d="
M24.590534,159.490707 
	C24.587105,159.629150 24.363073,159.571899 24.266020,159.509979 
	C24.168966,159.448059 24.433708,159.216141 24.492861,159.147324 
	C24.552013,159.078506 24.593966,159.352264 24.590534,159.490707 
z"/>
<path fill="#8CA793" opacity="1.000000" stroke="none" 
	d="
M478.132629,173.072693 
	C477.704407,173.044617 477.680725,172.637085 477.719574,172.437347 
	C478.670837,172.316895 479.583282,172.396179 480.798645,172.640717 
	C480.254700,172.904251 479.407745,173.002518 478.132629,173.072693 
z"/>
<path fill="#4C6472" opacity="1.000000" stroke="none" 
	d="
M274.453491,78.230339 
	C268.873962,78.418694 262.837952,78.531746 256.446167,78.457314 
	C262.059265,78.231560 268.028168,78.193306 274.453491,78.230339 
z"/>
<path fill="#4C6472" opacity="1.000000" stroke="none" 
	d="
M253.753342,70.531799 
	C253.575027,69.803505 253.471893,68.698372 253.523132,67.345413 
	C253.727844,68.116707 253.778198,69.135841 253.753342,70.531799 
z"/>
<path fill="#4C6472" opacity="1.000000" stroke="none" 
	d="
M253.744232,61.564568 
	C253.574921,61.116318 253.479065,60.319664 253.526947,59.309811 
	C253.719681,59.803131 253.768677,60.509644 253.744232,61.564568 
z"/>
</svg>